<svg xmlns="http://www.w3.org/2000/svg" width="597" height="414" fill="none"><path fill="#040023" fill-opacity=".44" d="M578.557 176.565s-29.196-30.467-81.968-49.286c-52.78-18.819-87.508-18.606-87.508-18.606s-22.142-68.762-103.603-97.89c-81.469-29.12-125.613 12.863-125.613 12.863s-34.496-10.8-65.139-.232C82.946 34.377 71.33 53.79 71.33 53.79s34.841-16.124 75.766-11.833c37.217 3.896 58.475 20.796 58.475 20.796s28.693-22.847 73.771-4.481c45.092 18.37 45.291 52.316 14.53 57.799-44.008 7.847-67.705-37.864-129.421-44.36-53.968-5.674-70.57 19.119-70.57 19.119s.507 19.717-25.62 31.365c-26.132 11.647-64.554 5.524-64.554 5.524s23.103 20.184 71.726 15.386c42.358-4.178 62.247-32.826 98.425-19.867 30.004 10.754 34.225 38.459-3.808 43.466-31.763 4.178-68.485-13.448-68.485-13.448s14.984 29.169 63.534 35.846c32.62 4.481 55.333-8.514 55.333-8.514s6.665-37.189 49.698-34.943c43.033 2.24 52.603 30.766 43.382 51.227-6.837 15.154-20.156 18.37-20.156 18.37s-8.202-19.568-27.492-25.392c-19.3-5.824-35.014 1.044-35.014 1.044s14.513 2.839 21.685 13.593c7.172 10.755 1.709 23.45-15.714 26.884-17.409 3.429-39.102-2.989-52.594-10.305-13.493-7.317-25.965-17.776-25.965-17.776s7.68 20.724 21.857 29.033c14.181 8.305 29.718 12.483 30.575 17.114.852 4.631-4.788 7.77-4.788 7.77s43.759 19.853 79.584 6.273c46.116-17.477 46.624-50.629 75.312-42.564 29.143 8.187 14.866 44.061-17.586 57.8-32.447 13.743-87.784 11.951-120.236 0-32.443-11.952-56.235-31.96-93.47-28.077-37.225 3.883-50.672 29.269-50.672 29.269s23.815-12.836 52.168-4.476c28.354 8.364 41.098 36.744 18.212 59.142-22.881 22.402-74.207 23.128-110.462 1.791-30.457-17.921-36.763-46.6-36.763-46.6s-9.865 32.907 14.303 57.509c37.988 38.677 94.776 31.36 96.816 37.924 2.058 6.572-7.78 13.893-7.78 13.893s47.472 7.765 91.122-16.139c41.383-22.669 36.441-43.901 60.007-54.955 23.566-11.054 63.865.004 65.914 21.214 2.054 21.204-30.733 23.295-48.156 20.905-17.418-2.39-28.358-10.754-28.358-10.754s7.182 24.797-9.557 35.547c-16.733 10.754-40.644 14.337-40.644 14.337s20.497 6.273 36.895 3.584c16.389-2.686 24.908-16.198 47.594-16.316 21.907-.118 52.477 16.982 89.712-4.594 33.217-19.259 26.979-56.158 26.979-56.158s21.861-24.793 60.801-18.225c41.242 6.963 54.018 35.552 54.018 35.552s6.438-25.396-14.739-53.772c-18.905-25.323-42.693-26.285-37.575-39.724 5.123-13.444 42.771 4.776 42.771 4.776s-23.276-33.356 1.976-37.039C553.287 220.159 597 281.392 597 281.392s-.131-35.692-35.317-70.346c-35.181-34.649-64.083-27.328-68.861-38.082-4.783-10.737 40.313-14.32 85.735 3.601Z"/></svg>