<svg xmlns="http://www.w3.org/2000/svg" width="491" height="341" fill="none"><path fill="#040023" fill-opacity=".44" d="M15.164 145.445s24.016-25.082 67.413-40.575c43.413-15.492 71.974-15.317 71.974-15.317s18.207-56.608 85.206-80.588c66.999-23.973 103.309 10.59 103.309 10.59s28.371-8.891 53.569-.191c26.137 9.025 35.69 25.007 35.69 25.007s-28.651-13.275-62.309-9.742c-30.608 3.207-48.092 17.12-48.092 17.12s-23.594-18.808-60.668-3.689c-37.088 15.123-37.249 43.069-11.95 47.583 36.194 6.46 55.683-31.171 106.441-36.519 44.385-4.671 58.039 15.74 58.039 15.74s-.421 16.231 21.067 25.82c21.491 9.589 53.095 4.549 53.095 4.549s-19.001 16.616-58.994 12.665c-34.833-3.439-51.194-27.023-80.944-16.355-24.68 8.854-28.148 31.661 3.132 35.784 26.122 3.439 56.32-11.072 56.32-11.072s-12.323 24.014-52.252 29.511c-26.828 3.689-45.508-7.009-45.508-7.009s-5.477-30.616-40.869-28.767c-35.392 1.844-43.267 25.328-35.683 42.172 5.623 12.475 16.581 15.123 16.581 15.123s6.745-16.109 22.614-20.903c15.869-4.795 28.796.859 28.796.859s-11.935 2.337-17.834 11.191c-5.898 8.853-1.405 19.305 12.92 22.131 14.318 2.823 32.159-2.46 43.259-8.484 11.093-6.023 21.354-14.633 21.354-14.633s-6.32 17.061-17.979 23.901c-11.66 6.837-24.441 10.277-25.146 14.089-.701 3.813 3.941 6.396 3.941 6.396s-35.989 16.344-65.456 5.165c-37.927-14.388-38.341-41.68-61.936-35.041-23.967 6.74-12.226 36.273 14.464 47.583 26.681 11.315 72.197 9.84 98.882 0 26.682-9.839 46.25-26.31 76.873-23.113 30.616 3.196 41.678 24.095 41.678 24.095s-19.59-10.567-42.908-3.685c-23.319 6.886-33.796 30.25-14.974 48.688 18.818 18.443 61.026 19.04 90.847 1.475 25.045-14.753 30.235-38.363 30.235-38.363s8.114 27.09-11.767 47.344c-31.242 31.84-77.943 25.817-79.628 31.22-1.689 5.411 6.402 11.438 6.402 11.438s-39.043 6.392-74.945-13.286c-34.031-18.663-29.967-36.142-49.352-45.242-19.378-9.1-52.521.004-54.211 17.464-1.689 17.457 25.277 19.178 39.61 17.21 14.325-1.967 23.318-8.853 23.318-8.853s-5.906 20.414 7.864 29.264c13.762 8.853 33.427 11.803 33.427 11.803s-16.857 5.164-30.347 2.95c-13.479-2.21-20.485-13.334-39.143-13.431-18.017-.097-43.155 13.98-73.778-3.783-27.323-15.855-22.189-46.231-22.189-46.231s-17.98-20.411-50.008-15.004c-33.916 5.732-44.423 29.268-44.423 29.268s-5.295-20.907 12.118-44.268c15.548-20.847 35.116-21.638 30.906-32.702-4.217-11.068-35.175 3.932-35.175 3.932s19.139-27.461-1.626-30.493C35.951 181.333 0 231.742 0 231.742s.108-29.383 29.05-57.911c28.934-28.525 52.704-22.498 56.63-31.351 3.933-8.839-33.155-11.789-70.516 2.965Z"/></svg>