<svg width="203" height="156" viewBox="0 0 203 156" fill="none" xmlns="http://www.w3.org/2000/svg">
<path d="M202.195 73.1055C202.192 73.1055 202.192 73.1055 202.192 73.1069C152.27 81.9874 137.638 0.86065 86.563 12.0646C86.2889 12.1179 86.0133 12.1753 85.7362 12.2341C78.0626 38.8278 63.5105 64.9539 43 88.9548C43.3287 88.9015 43.6531 88.855 43.9761 88.8099C102.551 81.8124 101.928 154.398 159.308 149.789C159.311 149.789 159.314 149.789 159.316 149.789C159.628 149.759 159.945 149.725 160.261 149.689C180.754 125.721 195.308 99.5953 203 72.9688C202.73 73.0207 202.462 73.0631 202.195 73.1055ZM186.514 73.6662C184.75 79.0022 182.755 84.2629 180.526 89.4485C175.59 88.5651 171.047 86.8366 166.805 84.4968C169.096 79.2565 171.167 73.9178 173.023 68.4847C177.235 70.9039 181.707 72.7021 186.514 73.6662ZM147.355 91.7445C150.074 86.6424 152.581 81.4172 154.882 76.0743C158.594 79.3509 162.474 82.2568 166.643 84.5692C164.333 89.8519 161.801 95.0347 159.057 100.111C154.88 97.8326 151.023 94.9704 147.355 91.7445ZM126.309 69.4557C128.88 64.2496 131.249 58.9109 133.413 53.4532C136.904 57.2658 140.326 61.1905 143.805 64.9853C141.562 70.3924 139.115 75.6819 136.466 80.8332C133.06 77.0959 129.716 73.2272 126.309 69.4557ZM103.834 49.6311C106.278 44.399 108.507 39.0617 110.508 33.6409C114.664 35.993 118.557 38.9454 122.283 42.2644C120.212 47.7316 117.921 53.0936 115.426 58.3338C111.776 55.0149 107.946 52.0351 103.834 49.6311ZM95.8156 64.8144C91.6444 62.3666 87.153 60.4904 82.1965 59.421C85.0472 54.4952 87.6884 49.4834 90.1027 44.3908C95.0003 45.4178 99.4802 47.2626 103.669 49.6994C101.26 54.8412 98.6391 59.8846 95.8156 64.8144ZM161.059 59.6206C159.197 65.1453 157.129 70.5606 154.847 75.861C151.079 72.523 147.484 68.8034 143.946 64.9457C146.17 59.5796 148.188 54.0946 149.999 48.496C153.609 52.4153 157.257 56.2074 161.059 59.6206ZM139.172 36.6439C137.454 42.2753 135.519 47.8082 133.377 53.2235C129.827 49.348 126.217 45.5928 122.429 42.2124C124.479 36.7889 126.321 31.2615 127.936 25.6534C131.818 28.9942 135.53 32.7479 139.172 36.6439ZM115.706 17.1024C114.192 22.6148 112.435 28.0725 110.455 33.4481C106.225 31.0646 101.731 29.3019 96.8664 28.3761C98.8228 23.1057 100.542 17.778 102.002 12.4256C106.87 13.1982 111.411 14.8228 115.706 17.1024ZM80.9908 28.413C86.6707 27.4913 91.8625 27.5747 96.6984 28.4827C94.7161 33.7982 92.4898 39.0562 90.0396 44.2363C85.175 43.2312 79.9071 43.0315 74.0736 43.8438C76.6315 38.7458 78.9411 33.5944 80.9908 28.413ZM65.6808 58.9779C71.6966 58.2135 77.075 58.4678 81.9999 59.5167C79.0989 64.5217 75.9698 69.4297 72.6253 74.2364C67.6071 73.1985 62.0837 72.9483 55.8411 73.7359C59.355 68.8841 62.6378 63.9624 65.6808 58.9779ZM62.0636 88.3818C65.8143 83.8116 69.3497 79.1471 72.6698 74.3814C77.7195 75.4412 82.2525 77.2983 86.4324 79.7146C83.1697 84.4352 79.7118 89.0287 76.0516 93.4976C71.8401 91.1579 67.2396 89.3705 62.0636 88.3818ZM97.8396 112.313C94.5841 108.678 91.2424 105.147 87.6597 101.938C91.3386 97.5358 94.8252 92.9821 98.1194 88.2806C94.5424 85.015 90.7515 82.0613 86.6133 79.6558C89.8989 74.8956 92.9778 70.0068 95.8486 64.9976C99.9812 67.4345 103.796 70.4307 107.418 73.7551C110.297 68.8143 112.977 63.7423 115.456 58.5471C119.168 61.9276 122.695 65.6568 126.157 69.4898C123.606 74.6508 120.853 79.6818 117.912 84.5706C114.523 80.7922 111.068 77.1068 107.418 73.7551C104.517 78.7369 101.415 83.5833 98.1194 88.2806C101.731 91.5777 105.123 95.1961 108.439 98.9102C105.093 103.536 101.56 108.008 97.8396 112.313ZM117.52 133.79C114.005 130.529 110.717 126.977 107.49 123.332C111.272 119.103 114.882 114.698 118.303 110.13C114.994 106.438 111.756 102.627 108.44 98.9088C111.787 94.2826 114.947 89.4977 117.914 84.5692C121.303 88.3504 124.623 92.2245 128.006 95.966C131.026 91.136 133.854 86.1583 136.483 81.052C139.946 84.8482 143.472 88.5049 147.199 91.7896C144.499 96.8453 141.604 101.781 138.51 106.578C134.849 103.322 131.392 99.7088 128.009 95.9673C128.009 95.9673 128.009 95.9673 128.006 95.966C124.961 100.84 121.726 105.567 118.303 110.13C118.306 110.132 118.306 110.13 118.306 110.13C121.611 113.824 124.986 117.403 128.577 120.653C125.076 125.196 121.383 129.582 117.52 133.79ZM142.667 148.115C137.561 146.913 133.034 144.952 128.899 142.487C132.843 138.22 136.608 133.785 140.174 129.206C135.982 126.83 132.17 123.907 128.576 120.656C132.077 116.115 135.394 111.417 138.509 106.578C142.176 109.834 146.05 112.734 150.283 115.055C153.425 110.249 156.364 105.322 159.09 100.291C163.343 102.6 167.926 104.301 172.964 105.165C170.273 110.202 167.349 115.157 164.211 120.02C159.111 119.112 154.519 117.374 150.286 115.055C150.283 115.055 150.286 115.055 150.283 115.055C147.115 119.901 143.742 124.625 140.174 129.204C140.174 129.204 140.174 129.204 140.174 129.206C144.365 131.578 148.946 133.404 154.063 134.428C150.47 139.121 146.665 143.693 142.667 148.115ZM171.199 134.791C164.848 135.667 159.186 135.452 154.067 134.43C157.664 129.736 161.047 124.928 164.215 120.022C169.307 120.931 174.908 121.01 181.117 120C178.051 124.992 174.74 129.93 171.199 134.791ZM189.573 104.879C183.608 105.92 178.16 105.909 173.158 105.064C175.869 99.9878 178.35 94.8296 180.599 89.6003C185.497 90.4645 190.793 90.4987 196.521 89.5045C194.459 94.6709 192.141 99.7936 189.573 104.879Z" fill="#040023" fill-opacity="0.44"/>
<path d="M85.161 0.119008L0 153L5.35435 155.708L90.5154 2.82657L85.161 0.119008Z" fill="#040023" fill-opacity="0.44"/>
</svg>
