<svg width="203" height="156" viewBox="0 0 203 156" fill="none" xmlns="http://www.w3.org/2000/svg">
<path d="M0 72.9688C7.69082 99.5953 22.2471 125.721 42.7373 149.689C43.0559 149.724 43.3703 149.759 43.6861 149.789C43.6861 149.789 43.6889 149.789 43.6904 149.789C101.074 154.398 100.451 81.8124 159.024 88.8099C159.347 88.855 159.673 88.9015 160 88.9548C139.488 64.9539 124.936 38.8279 117.263 12.2341C116.986 12.1753 116.71 12.1179 116.434 12.0646C65.3633 0.860666 50.7267 81.9861 0.806684 73.1069C0.806684 73.1055 0.803815 73.1055 0.803815 73.1055C0.536832 73.0631 0.266982 73.0207 0 72.9688ZM29.9752 68.4875C31.8298 73.9206 33.9053 79.2593 36.1919 84.4995C31.9489 86.8393 27.4073 88.5678 22.4696 89.4512C20.2433 84.2643 18.2495 79.0049 16.4826 73.6689C21.2911 72.7021 25.7624 70.9039 29.9752 68.4875ZM43.9416 100.112C41.1957 95.0374 38.6665 89.8533 36.3541 84.5706C40.5239 82.2568 44.4066 79.3522 48.1143 76.0757C50.4166 81.4185 52.9257 86.6437 55.6443 91.7459C51.9769 94.9704 48.12 97.8326 43.9416 100.112ZM66.536 80.8333C63.8849 75.6819 61.4347 70.3924 59.1926 64.9853C62.6705 61.1905 66.0983 57.2658 69.5891 53.4532C71.7494 58.9095 74.1207 64.2496 76.6929 69.4557C73.2853 73.2272 69.9408 77.0959 66.536 80.8333ZM87.5731 58.3338C85.0799 53.0936 82.789 47.7316 80.7177 42.2644C84.444 38.9455 88.3367 35.993 92.4908 33.6409C94.4931 39.0617 96.7209 44.399 99.1696 49.6311C95.0572 52.0351 91.2248 55.0149 87.5731 58.3338ZM99.3318 49.6981C103.522 47.2612 108 45.4164 112.899 44.3895C115.312 49.4834 117.953 54.4953 120.805 59.4196C115.847 60.489 111.355 62.3652 107.185 64.813C104.361 59.8846 101.742 54.8412 99.3318 49.6981ZM53.0018 48.496C54.8118 54.0946 56.8285 59.5796 59.0519 64.9457C55.5137 68.8034 51.9209 72.523 48.1516 75.861C45.8722 70.5606 43.8023 65.1453 41.9392 59.6206C45.7416 56.2074 49.3889 52.4153 53.0018 48.496ZM75.0651 25.6534C76.6814 31.2615 78.5216 36.7889 80.5727 42.2124C76.7862 45.5928 73.1719 49.348 69.6221 53.2235C67.482 47.8082 65.5456 42.2753 63.826 36.644C67.4705 32.748 71.1838 28.9942 75.0651 25.6534ZM100.997 12.4256C102.458 17.778 104.178 23.1044 106.134 28.3761C101.27 29.3019 96.7754 31.0646 92.5467 33.4481C90.5659 28.0725 88.809 22.6148 87.2932 17.1024C91.5893 14.8228 96.1295 13.1982 100.997 12.4256ZM128.922 43.8438C123.09 43.0315 117.824 43.2312 112.957 44.2363C110.506 39.0576 108.284 33.7996 106.304 28.4827C111.138 27.5747 116.33 27.4899 122.007 28.413C124.056 33.5944 126.367 38.7458 128.922 43.8438ZM147.16 73.7373C140.915 72.9483 135.393 73.1999 130.375 74.2378C127.031 69.4297 123.903 64.5231 121 59.5181C125.925 58.4692 131.304 58.2149 137.322 58.9793C140.362 63.9624 143.642 68.8841 147.16 73.7373ZM126.949 93.4976C123.288 89.0287 119.828 84.4366 116.567 79.7146C120.748 77.2983 125.281 75.4412 130.332 74.3814C133.652 79.1471 137.184 83.8117 140.937 88.3818C135.758 89.3705 131.159 91.1579 126.949 93.4976ZM94.5606 98.9102C97.8778 95.1961 101.27 91.5777 104.88 88.2806C101.585 83.5819 98.485 78.7369 95.5826 73.7551C91.9295 77.1068 88.476 80.7922 85.0885 84.5706C82.1459 79.6818 79.3943 74.6522 76.8422 69.4899C80.3086 65.6568 83.8311 61.9276 87.543 58.5471C90.0219 63.7423 92.7018 68.8143 95.5826 73.7551C99.2041 70.4307 103.019 67.4345 107.149 64.9976C110.023 70.0068 113.102 74.8956 116.386 79.6558C112.249 82.0613 108.458 85.0151 104.88 88.2806C108.174 92.9821 111.662 97.5359 115.341 101.938C111.759 105.149 108.416 108.678 105.161 112.313C101.442 108.008 97.9079 103.536 94.5606 98.9102ZM74.4221 120.656C78.0163 117.407 81.3895 113.827 84.6952 110.133C84.6952 110.133 84.6952 110.133 84.698 110.132C81.2746 105.567 78.0393 100.842 74.9948 95.9687C74.9934 95.9701 74.9934 95.9701 74.9934 95.9701C71.6087 99.7115 68.1552 103.324 64.4906 106.58C61.3988 101.783 58.5007 96.848 55.8022 91.7924C59.5285 88.5076 63.0538 84.851 66.5174 81.0548C69.147 86.161 71.9762 91.1401 74.9948 95.9687C78.3823 92.2259 81.7009 88.3518 85.0913 84.572C88.054 89.5005 91.2147 94.2853 94.562 98.9116C91.2449 102.63 88.0066 106.44 84.6995 110.133C88.1214 114.699 91.7286 119.105 95.5137 123.335C92.2841 126.979 88.9956 130.532 85.4818 133.792C81.6163 129.582 77.9259 125.196 74.4221 120.656ZM48.9353 134.43C54.0539 133.405 58.6314 131.58 62.8241 129.207C59.2572 124.627 55.8826 119.901 52.7147 115.056C48.4817 117.376 43.8856 119.114 38.7857 120.022C35.6479 115.159 32.7269 110.203 30.0341 105.166C35.0723 104.302 39.6569 102.601 43.9071 100.293C46.6358 105.324 49.5755 110.251 52.7147 115.056C56.9505 112.736 60.8232 109.835 64.4892 106.579C67.604 111.419 70.9197 116.115 74.4221 120.656C70.8307 123.907 67.0198 126.83 62.8241 129.207C66.3925 133.787 70.1575 138.222 74.1006 142.488C69.9666 144.954 65.438 146.915 60.328 148.117C56.3333 143.693 52.5295 139.121 48.9353 134.43ZM21.8796 120.001C28.0891 121.01 33.69 120.931 38.7842 120.023C41.9493 124.928 45.3339 129.738 48.931 134.431C43.8153 135.454 38.1498 135.669 31.7996 134.792C28.2585 129.93 24.9471 124.992 21.8796 120.001ZM6.47791 89.5045C12.2051 90.4973 17.5017 90.4645 22.4036 89.6003C24.6471 94.8296 27.1289 99.9878 29.8403 105.064C24.8423 105.909 19.3921 105.92 13.4281 104.879C10.8587 99.7936 8.53913 94.671 6.47791 89.5045Z" fill="#040023" fill-opacity="0.44"/>
<path d="M117.354 0.291737L112 3L197.168 155.877L202.522 153.169L117.354 0.291737Z" fill="#040023" fill-opacity="0.44"/>
</svg>
