<svg width="22" height="24" viewBox="0 0 22 24" fill="none" xmlns="http://www.w3.org/2000/svg">
<path d="M0.441818 0.370426C0.16196 0.657332 0 1.10402 0 1.68249V22.3164C0 22.8948 0.16196 23.3415 0.441818 23.6284L0.51089 23.6914L12.3173 12.1335V11.8606L0.51089 0.302783L0.441818 0.370426Z" fill="url(#paint0_linear_151_67)"/>
<path d="M16.2484 15.9878L12.3173 12.1329V11.86L16.2531 8.00511L16.3413 8.05527L21.0024 10.6528C22.3326 11.3899 22.3326 12.603 21.0024 13.3448L16.3413 15.9376L16.2484 15.9878Z" fill="url(#paint1_linear_151_67)"/>
<path d="M16.2051 15.9398L12.1811 11.9989L0.305542 23.6302C0.747361 24.0851 1.46785 24.1399 2.28718 23.685L16.2051 15.9398Z" fill="url(#paint2_linear_151_67)"/>
<path d="M16.3413 8.0562L2.42341 0.310926C1.60408 -0.139258 0.883591 -0.0844446 0.441772 0.370405L12.3173 11.9971L16.3413 8.0562Z" fill="url(#paint3_linear_151_67)"/>
<defs>
<linearGradient id="paint0_linear_151_67" x1="11.2691" y1="22.5312" x2="-4.38594" y2="6.54599" gradientUnits="userSpaceOnUse">
<stop stop-color="#00A0FF"/>
<stop offset="0.0066" stop-color="#00A1FF"/>
<stop offset="0.2601" stop-color="#00BEFF"/>
<stop offset="0.5122" stop-color="#00D2FF"/>
<stop offset="0.7604" stop-color="#00DFFF"/>
<stop offset="1" stop-color="#00E3FF"/>
</linearGradient>
<linearGradient id="paint1_linear_151_67" x1="22.7345" y1="11.9951" x2="-0.318014" y2="11.9951" gradientUnits="userSpaceOnUse">
<stop stop-color="#FFE000"/>
<stop offset="0.4087" stop-color="#FFBD00"/>
<stop offset="0.7754" stop-color="#FFA500"/>
<stop offset="1" stop-color="#FF9C00"/>
</linearGradient>
<linearGradient id="paint2_linear_151_67" x1="14.0169" y1="9.85657" x2="-7.21253" y2="-11.8207" gradientUnits="userSpaceOnUse">
<stop stop-color="#FF3A44"/>
<stop offset="1" stop-color="#C31162"/>
</linearGradient>
<linearGradient id="paint3_linear_151_67" x1="-2.54754" y1="30.4932" x2="6.93236" y2="20.8134" gradientUnits="userSpaceOnUse">
<stop stop-color="#32A071"/>
<stop offset="0.0685" stop-color="#2DA771"/>
<stop offset="0.4762" stop-color="#15CF74"/>
<stop offset="0.8009" stop-color="#06E775"/>
<stop offset="1" stop-color="#00F076"/>
</linearGradient>
</defs>
</svg>
