<svg xmlns="http://www.w3.org/2000/svg" width="203" height="156" fill="none" viewBox="0 0 203 156"><path fill="#040023" fill-opacity="0.44" d="M202.195 73.106h-.003C152.27 81.988 137.638.862 86.563 12.066q-.411.08-.827.17C78.063 38.827 63.51 64.953 43 88.954q.492-.078.976-.145c58.575-6.998 57.952 65.588 115.332 60.979h.008q.47-.046.945-.1c20.493-23.968 35.047-50.094 42.739-76.72-.27.052-.538.094-.805.137m-15.681.56a195 195 0 0 1-5.988 15.782c-4.936-.883-9.479-2.611-13.721-4.951a207 207 0 0 0 6.218-16.012c4.212 2.419 8.684 4.217 13.491 5.181m-39.159 18.079a210 210 0 0 0 7.527-15.67c3.712 3.276 7.592 6.182 11.761 8.494a208 208 0 0 1-7.586 15.542c-4.177-2.278-8.034-5.14-11.702-8.367m-21.046-22.29a216 216 0 0 0 7.104-16.002c3.491 3.813 6.913 7.737 10.392 11.532a214 214 0 0 1-7.339 15.848c-3.406-3.737-6.75-7.606-10.157-11.377M103.834 49.63a208 208 0 0 0 6.674-15.99c4.156 2.352 8.049 5.304 11.775 8.623a213 213 0 0 1-6.857 16.07c-3.65-3.32-7.48-6.299-11.592-8.703m-8.018 15.183c-4.172-2.447-8.663-4.324-13.62-5.393a207 207 0 0 0 7.907-15.03c4.897 1.027 9.377 2.872 13.566 5.308a208 208 0 0 1-7.853 15.115m65.243-5.193a213 213 0 0 1-6.212 16.24c-3.768-3.338-7.363-7.058-10.901-10.915a219 219 0 0 0 6.053-16.45c3.61 3.92 7.258 7.711 11.06 11.125m-21.887-22.977a218 218 0 0 1-5.795 16.58c-3.55-3.876-7.16-7.631-10.948-11.012a216 216 0 0 0 5.507-16.559c3.882 3.341 7.594 7.095 11.236 10.99M115.706 17.1a203 203 0 0 1-5.251 16.346c-4.23-2.383-8.724-4.146-13.589-5.072a188 188 0 0 0 5.136-15.95c4.868.772 9.409 2.397 13.704 4.676M80.991 28.413c5.68-.922 10.871-.838 15.707.07a202 202 0 0 1-6.658 15.753c-4.865-1.005-10.133-1.204-15.966-.392a192 192 0 0 0 6.917-15.431M65.68 58.978c6.016-.764 11.394-.51 16.319.539a211 211 0 0 1-9.375 14.72c-5.018-1.038-10.541-1.289-16.784-.501a225 225 0 0 0 9.84-14.758m-3.617 29.404q5.625-6.854 10.606-14c5.05 1.06 9.582 2.916 13.762 5.333a212 212 0 0 1-10.38 13.783c-4.212-2.34-8.812-4.127-13.988-5.116m35.776 23.931c-3.256-3.635-6.598-7.166-10.18-10.375a203 203 0 0 0 10.46-13.657c-3.578-3.266-7.369-6.22-11.507-8.625a207 207 0 0 0 9.236-14.658c4.132 2.436 7.947 5.433 11.569 8.757a209 209 0 0 0 8.038-15.208c3.712 3.38 7.239 7.11 10.701 10.943a208 208 0 0 1-8.245 15.08c-3.389-3.778-6.844-7.463-10.494-10.815a204 204 0 0 1-9.299 14.526c3.612 3.297 7.004 6.915 10.32 10.63a198 198 0 0 1-10.6 13.402m19.68 21.477c-3.515-3.261-6.803-6.813-10.03-10.458a197 197 0 0 0 10.813-13.202c-3.309-3.692-6.547-7.503-9.863-11.221a204 204 0 0 0 9.474-14.34c3.389 3.781 6.709 7.656 10.092 11.397 3.02-4.83 5.848-9.808 8.477-14.914 3.463 3.796 6.989 7.453 10.716 10.738a208 208 0 0 1-8.689 14.788c-3.661-3.256-7.118-6.87-10.501-10.61l-.003-.002a202 202 0 0 1-9.703 14.164h.003c3.305 3.694 6.68 7.273 10.271 10.523a200 200 0 0 1-11.057 13.137m25.147 14.325c-5.106-1.202-9.633-3.163-13.768-5.628a207 207 0 0 0 11.275-13.281c-4.192-2.376-8.004-5.299-11.598-8.55a203 203 0 0 0 9.933-14.078c3.667 3.256 7.541 6.156 11.774 8.477a209 209 0 0 0 8.807-14.764c4.253 2.309 8.836 4.01 13.874 4.874a209 209 0 0 1-8.753 14.855c-5.1-.908-9.692-2.646-13.925-4.965h-.003a210 210 0 0 1-10.109 14.149v.002c4.191 2.372 8.772 4.198 13.889 5.222a218 218 0 0 1-11.396 13.687m28.532-13.324c-6.351.876-12.013.661-17.132-.361a219 219 0 0 0 10.148-14.408c5.092.909 10.693.988 16.902-.022a226 226 0 0 1-9.918 14.791m18.374-29.912c-5.965 1.041-11.413 1.03-16.415.185a204 204 0 0 0 7.441-15.464c4.898.865 10.194.899 15.922-.096a192 192 0 0 1-6.948 15.375M85.161.119 0 153l5.354 2.708L90.515 2.827z"/></svg>