<svg xmlns="http://www.w3.org/2000/svg" width="203" height="156" fill="none" viewBox="0 0 203 156"><path fill="#040023" fill-opacity="0.44" d="M0 72.969c7.69 26.626 22.247 52.752 42.737 76.72q.477.054.95.1h.003c57.384 4.609 56.761-67.977 115.334-60.98q.485.068.976.146c-20.512-24.001-35.064-50.127-42.737-76.72a46 46 0 0 0-.829-.17C65.364.86 50.727 81.986.807 73.107l-.003-.001c-.267-.043-.537-.085-.804-.137m29.975-4.481a208 208 0 0 0 6.217 16.011c-4.243 2.34-8.785 4.069-13.722 4.952a197 197 0 0 1-5.987-15.782c4.808-.967 9.28-2.765 13.492-5.181m13.967 31.624a207 207 0 0 1-7.588-15.541c4.17-2.314 8.053-5.219 11.76-8.495a210 210 0 0 0 7.53 15.67c-3.667 3.224-7.524 6.087-11.702 8.366m22.594-19.279a213 213 0 0 1-7.343-15.848c3.477-3.794 6.905-7.72 10.396-11.532a214 214 0 0 0 7.104 16.003c-3.408 3.771-6.752 7.64-10.157 11.377m21.037-22.5a213 213 0 0 1-6.855-16.069c3.726-3.318 7.619-6.271 11.773-8.623a207 207 0 0 0 6.679 15.99c-4.113 2.404-7.945 5.384-11.597 8.703m11.759-8.635c4.19-2.437 8.668-4.282 13.567-5.309a206 206 0 0 0 7.906 15.03c-4.958 1.07-9.45 2.946-13.62 5.394a208 208 0 0 1-7.853-15.115m-46.33-1.202a219 219 0 0 0 6.05 16.45c-3.538 3.857-7.131 7.577-10.9 10.915a215 215 0 0 1-6.213-16.24c3.803-3.414 7.45-7.206 11.063-11.125m22.063-22.843a216 216 0 0 0 5.508 16.56c-3.787 3.38-7.401 7.135-10.95 11.01a220 220 0 0 1-5.797-16.579c3.645-3.896 7.358-7.65 11.24-10.99m25.932-13.227a189 189 0 0 0 5.137 15.95c-4.864.926-9.359 2.689-13.587 5.072a203 203 0 0 1-5.254-16.346c4.296-2.28 8.836-3.904 13.704-4.676m27.925 31.418c-5.832-.812-11.098-.613-15.965.392a200 200 0 0 1-6.653-15.753c4.834-.908 10.026-.993 15.703-.07a192 192 0 0 0 6.915 15.43m18.238 29.893c-6.245-.789-11.767-.537-16.785.5A213 213 0 0 1 121 59.519c4.925-1.049 10.304-1.303 16.322-.539q4.56 7.476 9.838 14.758m-20.211 19.76a211 211 0 0 1-10.382-13.782c4.181-2.417 8.714-4.274 13.765-5.334a222 222 0 0 0 10.605 14c-5.179.99-9.778 2.777-13.988 5.117M94.561 98.91c3.317-3.714 6.709-7.332 10.319-10.63a205 205 0 0 1-9.297-14.525c-3.653 3.352-7.107 7.037-10.495 10.816a208 208 0 0 1-8.246-15.081c3.467-3.833 6.99-7.562 10.701-10.943a208 208 0 0 0 8.04 15.208c3.621-3.324 7.436-6.32 11.566-8.757a209 209 0 0 0 9.237 14.658c-4.137 2.405-7.928 5.36-11.506 8.625a202 202 0 0 0 10.461 13.657c-3.582 3.211-6.925 6.74-10.18 10.375a199 199 0 0 1-10.6-13.403m-20.139 21.746c3.594-3.249 6.968-6.829 10.273-10.523l.003-.001a202 202 0 0 1-9.703-14.163l-.002.001c-3.384 3.742-6.838 7.354-10.502 10.61a209 209 0 0 1-8.689-14.788c3.727-3.284 7.252-6.941 10.715-10.737a207 207 0 0 0 8.478 14.914c3.387-3.743 6.706-7.617 10.096-11.397a202 202 0 0 0 9.471 14.34c-3.317 3.718-6.555 7.528-9.862 11.221a197 197 0 0 0 10.814 13.202c-3.23 3.644-6.518 7.197-10.032 10.457a201 201 0 0 1-11.06-13.136M48.935 134.43c5.119-1.025 9.696-2.85 13.89-5.223a211 211 0 0 1-10.11-14.151c-4.233 2.32-8.83 4.058-13.93 4.966a210 210 0 0 1-8.75-14.856c5.037-.864 9.622-2.565 13.872-4.873a210 210 0 0 0 8.808 14.763c4.235-2.32 8.108-5.221 11.774-8.477 3.115 4.84 6.43 9.536 9.933 14.077-3.591 3.251-7.402 6.174-11.598 8.551a207 207 0 0 0 11.277 13.281c-4.134 2.466-8.663 4.427-13.773 5.629a221 221 0 0 1-11.393-13.687M21.88 120.001c6.21 1.009 11.81.93 16.904.022a218 218 0 0 0 10.147 14.408c-5.116 1.023-10.781 1.238-17.131.361a227 227 0 0 1-9.92-14.791M6.478 89.504c5.727.993 11.024.96 15.926.096a201 201 0 0 0 7.436 15.464c-4.998.845-10.448.856-16.412-.185a191 191 0 0 1-6.95-15.375"/><path fill="#040023" fill-opacity="0.44" d="M117.354.292 112 3l85.168 152.877 5.354-2.708z"/></svg>