<svg xmlns="http://www.w3.org/2000/svg" width="22" height="24" fill="none" viewBox="0 0 22 24"><path fill="url(#a)" d="M.442.37C.162.657 0 1.104 0 1.682v20.634c0 .579.162 1.026.442 1.312l.069.063 11.806-11.557v-.273L.511.303z"/><path fill="url(#b)" d="m16.248 15.988-3.93-3.855v-.273l3.935-3.855.088.05 4.661 2.598c1.33.737 1.33 1.95 0 2.692l-4.66 2.593z"/><path fill="url(#c)" d="m16.205 15.94-4.024-3.941L.306 23.63c.441.455 1.162.51 1.981.055z"/><path fill="url(#d)" d="M16.341 8.056 2.423.311C1.604-.14.883-.084.442.37l11.875 11.626z"/><defs><linearGradient id="a" x1="11.2691" x2="-4.38594" y1="22.5312" y2="6.54599" gradientUnits="userSpaceOnUse"><stop stop-color="#00A0FF"/><stop offset="0.0066" stop-color="#00A1FF"/><stop offset="0.2601" stop-color="#00BEFF"/><stop offset="0.5122" stop-color="#00D2FF"/><stop offset="0.7604" stop-color="#00DFFF"/><stop offset="1" stop-color="#00E3FF"/></linearGradient><linearGradient id="b" x1="22.7345" x2="-0.318014" y1="11.9951" y2="11.9951" gradientUnits="userSpaceOnUse"><stop stop-color="#FFE000"/><stop offset="0.4087" stop-color="#FFBD00"/><stop offset="0.7754" stop-color="orange"/><stop offset="1" stop-color="#FF9C00"/></linearGradient><linearGradient id="c" x1="14.0169" x2="-7.21253" y1="9.85657" y2="-11.8207" gradientUnits="userSpaceOnUse"><stop stop-color="#FF3A44"/><stop offset="1" stop-color="#C31162"/></linearGradient><linearGradient id="d" x1="-2.54754" x2="6.93236" y1="30.4932" y2="20.8134" gradientUnits="userSpaceOnUse"><stop stop-color="#32A071"/><stop offset="0.0685" stop-color="#2DA771"/><stop offset="0.4762" stop-color="#15CF74"/><stop offset="0.8009" stop-color="#06E775"/><stop offset="1" stop-color="#00F076"/></linearGradient></defs></svg>